<svg width="200" height="220" viewBox="0 0 200 220" xmlns="http://www.w3.org/2000/svg">
  <rect width="200" height="220" rx="18" fill="#1A1A1A"/>
  <path d="M88 72 Q84 60 86 50 Q88 42 86 34" fill="none" stroke="#E67E22" stroke-width="2" stroke-linecap="round" opacity="0.6"/>
  <path d="M100 68 Q97 56 99 46 Q101 38 99 30" fill="none" stroke="#E67E22" stroke-width="1.5" stroke-linecap="round" opacity="0.4"/>
  <path d="M112 72 Q109 62 111 53 Q113 46 111 38" fill="none" stroke="#E67E22" stroke-width="2" stroke-linecap="round" opacity="0.5"/>
  <path d="M100 28 Q95 18 97 10 Q99 3 98 -2 Q95 4 92 1 Q95 -4 99 -5 Q105 -1 104 8 Q103 18 100 28Z" fill="#C0392B"/>
  <circle cx="100" cy="-6" r="4" fill="#E67E22"/>
  <rect x="22" y="108" width="156" height="68" rx="10" fill="#E67E22"/>
  <rect x="22" y="108" width="52" height="68" rx="10" fill="#C0392B"/>
  <rect x="62" y="108" width="12" height="68" fill="#C0392B"/>
  <rect x="28" y="116" width="36" height="24" rx="5" fill="#1A1A1A" opacity="0.5"/>
  <rect x="30" y="118" width="32" height="20" rx="4" fill="#1A1A1A"/>
  <rect x="32" y="120" width="10" height="6" rx="2" fill="#fff" opacity="0.08"/>
  <rect x="86" y="114" width="52" height="32" rx="5" fill="#1A1A1A" opacity="0.4"/>
  <rect x="88" y="116" width="48" height="28" rx="4" fill="#1A1A1A"/>
  <rect x="88" y="116" width="48" height="4" rx="2" fill="#C0392B" opacity="0.6"/>
  <rect x="146" y="112" width="24" height="36" rx="4" fill="#C0392B"/>
  <rect x="149" y="115" width="18" height="3" rx="1" fill="#fff" opacity="0.7"/>
  <rect x="149" y="120" width="14" height="2" rx="1" fill="#fff" opacity="0.5"/>
  <rect x="149" y="124" width="16" height="2" rx="1" fill="#fff" opacity="0.5"/>
  <rect x="149" y="128" width="12" height="2" rx="1" fill="#fff" opacity="0.5"/>
  <rect x="149" y="133" width="15" height="2" rx="1" fill="#fff" opacity="0.5"/>
  <rect x="22" y="168" width="156" height="10" rx="4" fill="#C0392B" opacity="0.7"/>
  <circle cx="62" cy="182" r="18" fill="#1A1A1A"/>
  <circle cx="62" cy="182" r="12" fill="#2A2A2A"/>
  <circle cx="62" cy="182" r="6" fill="#E67E22"/>
  <circle cx="62" cy="182" r="2" fill="#1A1A1A"/>
  <line x1="62" y1="170" x2="62" y2="176" stroke="#E67E22" stroke-width="1.5"/>
  <line x1="62" y1="188" x2="62" y2="194" stroke="#E67E22" stroke-width="1.5"/>
  <line x1="50" y1="182" x2="56" y2="182" stroke="#E67E22" stroke-width="1.5"/>
  <line x1="68" y1="182" x2="74" y2="182" stroke="#E67E22" stroke-width="1.5"/>
  <circle cx="138" cy="182" r="18" fill="#1A1A1A"/>
  <circle cx="138" cy="182" r="12" fill="#2A2A2A"/>
  <circle cx="138" cy="182" r="6" fill="#E67E22"/>
  <circle cx="138" cy="182" r="2" fill="#1A1A1A"/>
  <line x1="138" y1="170" x2="138" y2="176" stroke="#E67E22" stroke-width="1.5"/>
  <line x1="138" y1="188" x2="138" y2="194" stroke="#E67E22" stroke-width="1.5"/>
  <line x1="126" y1="182" x2="132" y2="182" stroke="#E67E22" stroke-width="1.5"/>
  <line x1="144" y1="182" x2="150" y2="182" stroke="#E67E22" stroke-width="1.5"/>
  <ellipse cx="100" cy="202" rx="80" ry="5" fill="#000" opacity="0.3"/>
  <text x="100" y="213" text-anchor="middle" fill="#fff" font-size="13" font-weight="800" font-family="system-ui,sans-serif" letter-spacing="2">SPICE ROAD TRUCK</text>
</svg>
